<svg aria-hidden="true" style="position: absolute; width: 0; height: 0; overflow: hidden;"
  width="0" height="0" version="1.1" xmlns="https://www.w3.org/2000/svg" xmlns:xlink="https://www.w3.org/1999/xlink">
    <symbol id="user-sign-in" viewBox="0 0 25 25">
      <title>user-sign-in</title>
        <path d="M26.6,22.9c-1.2-2.3-3.3-4-5.7-4.7l-2.5-0.7c-0.1,0-0.1,0-0.1-0.1c0,0,0-0.1,0-0.2l1.8-2
          c1.5-1.6,2.1-3.8,1.9-5.9l-0.3-2.4c-0.3-2.3-1.5-4.3-3.4-5.5l-0.1,0c-1.2-0.8-2.6-1.1-4-1.1c-1.5,0-2.9,0.4-4.3,1.3
          c-1.8,1.2-2.9,3-3.2,5.1L6.2,9.1c-0.3,2.2,0.3,4.5,1.8,6.2l1.7,1.9c0,0,0,0,0,0.1c0,0.1,0,0.1,0,0.2c0,0.1-0.1,0.1-0.1,0.1l-2.5,0.7
          c-2.4,0.7-4.5,2.4-5.7,4.7c-0.5,1-0.5,2.3,0.1,3.3c0.7,1,1.8,1.6,2.9,1.6h19.3c1.2,0,2.3-0.6,2.9-1.6C27.2,25.3,27.2,24,26.6,22.9z
          M11.1,18.1c0.2-0.4,0.2-0.9,0.1-1.4c-0.1-0.2-0.2-0.4-0.3-0.5l-1.7-1.9C8,13,7.5,11.1,7.7,9.3l0.4-2.6c0.3-1.7,1.2-3.2,2.6-4.1
          c1-0.7,2.2-1,3.4-1c1.2,0,2.3,0.3,3.3,1l0.1,0h0C19,3.6,20,5.2,20.2,7l0.3,2.4c0.2,1.7-0.3,3.4-1.5,4.7l-1.8,2
          c-0.1,0.2-0.2,0.3-0.3,0.5c-0.2,0.4-0.1,0.9,0.1,1.4c0.2,0.4,0.6,0.7,1,0.9l2.5,0.7c2.1,0.6,3.8,2,4.8,3.9c0.3,0.6,0.3,1.3-0.1,1.8
          c-0.3,0.5-0.9,0.9-1.6,0.9H4.4c-0.7,0-1.2-0.4-1.6-0.9c-0.3-0.6-0.3-1.2,0-1.8l0,0c1-1.9,2.7-3.3,4.8-3.9l2.5-0.7
          C10.5,18.8,10.9,18.5,11.1,18.1z"/>
    </symbol>
    <symbol id="report-data" viewBox="0 0 35 35">
      <title>report-data</title>
      <g>
        <polygon points="11.5,15.5 12.6,16.5 16.9,11.8 16.9,26.3 18.1,26.3 18.1,11.8 22.4,16.5 23.5,15.5 17.5,9 	"/>
        <path d="M32.8,17.5c0-2.1-0.4-4.1-1.2-6c-2.3-5.5-7.8-9.4-14.1-9.4c-6.7,0-12.4,4.3-14.4,10.3c-0.5,1.6-0.9,3.3-0.9,5
          c0,3.7,1.3,7.1,3.5,9.8c2.8,3.4,7,5.5,11.8,5.5c3.2,0,6.1-1,8.6-2.6C30.1,27.4,32.8,22.8,32.8,17.5z M17.5,31.6c-3.1,0-6-1-8.3-2.7
          c-3.5-2.6-5.8-6.7-5.8-11.4c0-1.5,0.2-2.9,0.6-4.2c1.8-5.7,7.2-9.9,13.5-9.9c5.9,0,10.9,3.6,13.1,8.8c0.7,1.7,1.1,3.5,1.1,5.4
          c0,6-3.7,11.1-8.9,13.1C21.1,31.3,19.3,31.6,17.5,31.6z"/>
      </g>
    </symbol>
    <symbol id="dashboard" viewBox="0 0 25 25">
      <title>dashboard</title>
      <g>
        <path d="M22.2,12.8H12.1V2.8c0-0.3-0.2-0.5-0.5-0.5h-0.1c-6.2,0-11.2,5-11.2,11.2c0,6.2,5,11.2,11.2,11.2
          c6.2,0,11.2-5,11.2-11.2v-0.1C22.7,13.1,22.5,12.8,22.2,12.8z M11.6,13.9h10c-0.2,5.4-4.7,9.7-10.1,9.7c-5.6,0-10.2-4.6-10.2-10.2
          c0-5.4,4.3-9.9,9.7-10.1v10C11.1,13.7,11.3,13.9,11.6,13.9z"/>
        <path d="M24.7,9.9l0-0.1C24,4.9,20.1,1,15.2,0.3l-0.1,0l0,0c-0.1,0-0.3,0-0.4,0.1c-0.1,0.1-0.2,0.2-0.2,0.4V10
          c0,0.3,0.2,0.5,0.5,0.5h9.2c0.2,0,0.3-0.1,0.4-0.2C24.7,10.2,24.7,10.1,24.7,9.9z M23.5,9.5h-8v-8C19.5,2.2,22.8,5.5,23.5,9.5z"/>
      </g>
    </symbol>
    <symbol id="manage-users" viewBox="0 0 25 25">
      <title>manage-users</title>
      <g>
        <path d="M4.4,10.8V0.2H3.6v10.7c-1.9,0.2-3.4,1.8-3.4,3.8s1.5,3.6,3.4,3.8v6.4h0.9v-6.4c1.9-0.2,3.4-1.8,3.4-3.8
		  S6.3,11.1,4.4,10.8z M4,17.6c-1.6,0-3-1.3-3-3s1.3-3,3-3s3,1.3,3,3S5.6,17.6,4,17.6z"/>
        <path d="M12.9,2.3V0.2h-0.9v2.2c-1.9,0.2-3.4,1.8-3.4,3.8c0,2,1.5,3.6,3.4,3.8v14.9h0.9V9.9c1.9-0.2,3.4-1.8,3.4-3.8
		  C16.3,4.2,14.8,2.6,12.9,2.3z M12.5,9.1c-1.6,0-3-1.3-3-3s1.3-3,3-3s3,1.3,3,3S14.1,9.1,12.5,9.1z"/>
        <path d="M24.8,18.9c0-2-1.5-3.6-3.4-3.8V0.2h-0.9v14.9c-1.9,0.2-3.4,1.8-3.4,3.8s1.5,3.6,3.4,3.8v2.2h0.9v-2.2
		  C23.3,22.4,24.8,20.8,24.8,18.9z M21,21.8c-1.6,0-3-1.3-3-3c0-1.6,1.3-3,3-3s3,1.3,3,3C24,20.5,22.6,21.8,21,21.8z"/>
      </g>
    </symbol>
    <symbol id="account-settings" viewBox="0 0 25 25">
      <title>account-settings</title>
      <g>
        <path d="M12.5,6.5c-3.3,0-6,2.7-6,6s2.7,6,6,6s6-2.7,6-6S15.8,6.5,12.5,6.5z M12.5,17.5c-2.8,0-5-2.3-5-5s2.3-5,5-5
		  s5,2.3,5,5S15.3,17.5,12.5,17.5z"/>
        <path d="M24.5,9.8l-3-0.7c-0.1-0.2-0.2-0.4-0.2-0.6l1.6-2.6c0.1-0.2,0.1-0.4-0.1-0.6l-3.1-3.1
		  c-0.1-0.2-0.4-0.2-0.6-0.1l-2.6,1.6c-0.2-0.1-0.4-0.2-0.6-0.3l-0.7-3c-0.1-0.2-0.2-0.3-0.5-0.3h-4.4c-0.2,0-0.4,0.1-0.5,0.4l-0.7,3
		  C9,3.6,8.8,3.7,8.6,3.8L5.9,2.2C5.7,2,5.5,2.1,5.3,2.2L2.2,5.3C2.1,5.5,2.1,5.8,2.2,5.9l1.6,2.6C3.7,8.7,3.6,8.9,3.6,9.1l-3,0.7
		  c-0.2,0-0.4,0.2-0.4,0.5v4.4c0,0.2,0.2,0.4,0.4,0.5l3,0.7c0.1,0.2,0.2,0.4,0.2,0.6l-1.6,2.6c-0.1,0.2-0.1,0.4,0.1,0.6l3.1,3.1
		  c0.2,0.2,0.4,0.2,0.6,0.1l2.6-1.6c0.2,0.1,0.4,0.2,0.6,0.3l0.7,3c0,0.2,0.2,0.4,0.5,0.4h4.4c0.2,0,0.4-0.2,0.5-0.4l0.7-3
		  c0.2-0.1,0.4-0.2,0.6-0.3l2.6,1.6c0.2,0.1,0.4,0.1,0.6-0.1l3.1-3.1c0.1-0.2,0.2-0.4,0.1-0.6l-1.6-2.6c0.1-0.2,0.2-0.4,0.2-0.6
		  l3-0.7c0.2,0,0.4-0.2,0.4-0.5v-4.4C24.8,10.1,24.7,9.9,24.5,9.8z M20.7,15.3c-0.1,0.3-0.3,0.7-0.4,1c-0.1,0.1-0.1,0.3,0,0.5
		  l1.6,2.5l-2.6,2.6l-2.5-1.6c-0.1-0.1-0.3-0.1-0.4,0c-0.3,0.1-0.6,0.3-1,0.4c-0.2,0-0.3,0.2-0.3,0.3l-0.7,2.9h-3.7L10,21
		  c0-0.2-0.2-0.3-0.3-0.3c-0.4-0.1-0.7-0.3-1-0.4c-0.1-0.1-0.3-0.1-0.5,0l-2.5,1.6l-2.6-2.6l1.6-2.5c0.1-0.1,0.1-0.3,0-0.5
		  c-0.2-0.3-0.3-0.7-0.4-1C4.3,15.1,4.2,15,4,15l-2.9-0.7v-3.7L4,10c0.2,0,0.3-0.2,0.3-0.3c0.1-0.3,0.2-0.6,0.4-1
		  c0.1-0.1,0.1-0.3,0-0.5L3.1,5.8l2.6-2.6l2.5,1.6c0.1,0.1,0.3,0.1,0.4,0c0.3-0.1,0.6-0.3,1-0.4C9.8,4.3,10,4.2,10,4l0.7-2.9h3.7
		  L15,4c0,0.2,0.2,0.3,0.3,0.3c0.4,0.1,0.7,0.3,1,0.4c0.1,0.1,0.3,0.1,0.5,0l2.5-1.6l2.6,2.6l-1.6,2.5c-0.1,0.1-0.1,0.3,0,0.5
		  c0.2,0.3,0.3,0.7,0.4,1C20.7,9.8,20.8,10,21,10l2.9,0.7v3.7L21,15C20.8,15,20.7,15.1,20.7,15.3z"/>
      </g>
    </symbol>
    <symbol id="help-support" viewBox="0 0 25 25">
      <title>help-support</title>
      <g>
        <path d="M12.5,0.3C5.8,0.3,0.3,5.8,0.3,12.5s5.5,12.2,12.2,12.2s12.2-5.5,12.2-12.2S19.2,0.3,12.5,0.3z M12.5,23.8
		  c-6.2,0-11.3-5.1-11.3-11.3S6.3,1.2,12.5,1.2s11.3,5.1,11.3,11.3S18.7,23.8,12.5,23.8z"/>
        <path d="M12.5,10.7h-0.4c-0.1,0-0.3,0-0.3,0.1c-0.1,0.1-0.1,0.2-0.1,0.3v8c0,0.1,0,0.3,0.1,0.3
		  c0.1,0.1,0.2,0.1,0.3,0.1h0.4c0.1,0,0.3,0,0.3-0.1c0.1-0.1,0.1-0.2,0.1-0.3v-8c0-0.1,0-0.3-0.1-0.3C12.8,10.7,12.7,10.7,12.5,10.7z"/>
        <path d="M12.6,6.7h-0.5c-0.1,0-0.3,0-0.4,0.1c-0.1,0.1-0.1,0.3-0.1,0.4v0.5c0,0.1,0,0.3,0.1,0.3
		  c0.1,0.1,0.2,0.1,0.3,0.1h0.5c0.1,0,0.3,0,0.4-0.1C13,7.9,13,7.8,13,7.6V7.2c0-0.1,0-0.3-0.1-0.4C12.8,6.7,12.7,6.7,12.6,6.7z"/>
      </g>
    </symbol>
    <symbol id="details" viewBox="0 0 25 25">
        <title>details</title>
        <g>
            <path d="M21.8,0.4H3.2c-1.2,0-2.1,1-2.1,2.1v20c0,1.2,1,2.1,2.1,2.1h18.6c1.2,0,2.1-1,2.1-2.1v-20
		        C23.9,1.3,23,0.4,21.8,0.4z M22.9,22.5c0,0.6-0.5,1.1-1.1,1.1H3.2c-0.6,0-1.1-0.5-1.1-1.1v-20c0-0.6,0.5-1.1,1.1-1.1h18.6
		        c0.6,0,1.1,0.5,1.1,1.1V22.5z"/>
            <rect x="6.2" y="17.3" width="1.6" height="1"/>
            <rect x="6.2" y="12.4" width="1.6" height="1"/>
            <rect x="6.2" y="7.4" width="1.6" height="1"/>
            <rect x="9.3" y="17.3" width="6.1" height="1"/>
            <rect x="9.3" y="12.4" width="9.3" height="1"/>
            <rect x="9.3" y="7.4" width="6.5" height="1"/>
        </g>
    </symbol>
    <symbol id="clinicians" viewBox="0 0 25 25">
        <title>clinicians</title>
        <g>
            <path d="M24.7,18.8L24.7,18.8c-0.7-1.4-2-2.5-3.6-2.9l-1.6-0.5c0,0-0.1,0-0.1-0.1v-0.1l0,0l1.1-1.3
                c0.9-1,1.3-2.4,1.2-3.7l-0.2-1.5c-0.2-1.4-0.9-2.6-2.1-3.3l-0.1-0.1c-0.7-0.5-1.6-0.7-2.5-0.7S15,4.9,14.1,5.4
                c-0.2,0.1-0.3,0.2-0.5,0.4l-0.1,0.1l0,0c-0.4-0.8-0.8-1.5-1.6-2l0,0C11.1,3.3,10,3,9.1,3C8,3,7,3.3,6.2,3.9C5,4.7,4.2,5.9,4,7.3
                L3.7,9.1c-0.2,1.5,0.2,3,1.2,4.2l1.2,1.3c0,0,0,0,0.1,0.1c0,0.1,0,0.2,0,0.2c0,0.1-0.1,0.2-0.2,0.2l-1.7,0.5
                c-1.7,0.5-3.1,1.7-3.9,3.2C0,19.5,0,20.3,0.4,21c0.4,0.6,1.1,1,1.9,1h8.5h4.9c0.3,0,0.5-0.1,0.7-0.1h6.4c0.7,0,1.4-0.4,1.8-1
                C25,20.2,25,19.5,24.7,18.8z M15.7,21.3l-5.3-0.1H9l-6.7,0.1c-1.1,0-1.8-1.2-1.2-2.1c0.7-1.4,2-2.4,3.4-2.8l1.7-0.5
                c0.6-0.2,0.9-0.8,0.7-1.4c-0.1-0.1-0.1-0.2-0.2-0.3l-1.2-1.3c-0.9-1-1.3-2.3-1.1-3.6l0.3-1.8c0.3-1.2,0.9-2.3,1.9-3
                C7.4,4,8.2,3.8,9.1,3.8c0.8,0,1.6,0.2,2.3,0.7l0,0c0.8,0.5,1.4,1.3,1.8,2.2c0.1,0.3,0.2,0.6,0.2,1l0,0l0.2,1.7
                c0.1,1.1-0.2,2.1-0.8,3c-0.1,0.1-0.2,0.3-0.3,0.4L12.3,13l-1.1,1.2c-0.1,0.1-0.2,0.2-0.2,0.3c-0.2,0.6,0.1,1.1,0.7,1.3l1.1,0.4
                l0.7,0.2c0.3,0.1,0.3,0.1,0.5,0.2c1.3,0.5,2.3,1.4,3,2.6C17.5,20.1,16.8,21.3,15.7,21.3z M13.1,14.2l1.1,1.2l0,0v0.1l-0.1,0.1
                l-0.1,0c-0.1,0-0.2,0-0.2,0l-1.6-0.6c-0.1,0-0.2-0.1-0.3-0.2c-0.1-0.1-0.1-0.2,0-0.3l0.1-0.1l0.8-0.9C12.9,13.9,13,14,13.1,14.2z
                 M23.8,20.4c-0.2,0.3-0.6,0.6-1,0.6h-5.3l0,0c0.4-0.7,0.4-1.5,0.1-2.2c-0.6-1.1-1.6-2.1-2.7-2.7c0.2-0.3,0.2-0.6,0.1-0.9
                c0-0.1-0.1-0.2-0.2-0.3l-1.1-1.2c-0.2-0.2-0.3-0.4-0.5-0.6l0,0c0.8-1.1,1.2-2.4,1.1-3.8l-0.2-1.7c0-0.2-0.1-0.5-0.1-0.7
                c0,0,0,0,0-0.1l0.1-0.1c0.2-0.2,0.4-0.4,0.6-0.5c0.7-0.4,1.4-0.7,2.1-0.7c0.7,0,1.4,0.1,2,0.5l0.1,0.1l0,0c0.9,0.6,1.6,1.6,1.7,2.8
                l0.2,1.5c0.1,1.1-0.2,2.1-0.9,3l-1.1,1.3c-0.1,0.1-0.2,0.2-0.2,0.3c-0.1,0.3-0.1,0.6,0.1,0.9c0.1,0.3,0.6,0.4,0.9,0.5l1.6,0.5
                c1.3,0.4,2.2,1.4,2.8,2.6C24.1,19.6,24.1,20.1,23.8,20.4z"/>
        </g>
    </symbol>
    <symbol id="group-reporting" viewBox="0 0 25 25">
        <title>group-reporting</title>
        <g>
            <path d="M16.9,9C12.5,9,9,12.6,9,16.9s3.6,7.9,7.9,7.9c4.4,0,7.9-3.6,7.9-7.9S21.2,9,16.9,9z M16.9,23.8
		        c-3.8,0-6.9-3.1-6.9-6.9s3.1-6.9,6.9-6.9s6.9,3.1,6.9,6.9S20.6,23.8,16.9,23.8z"/>
            <polygon points="13.5,17.2 14.3,17.9 16.5,15.5 16.5,20.6 17.4,20.6 17.4,15.5 19.6,17.9 20.4,17.2 17,13.5 	"/>
            <rect x="8.5" y="4" width="2" height="2.2"/>
            <rect x="12.9" y="4" width="2" height="2.2"/>
            <rect x="8.5" y="8.8" width="2" height="2.2"/>
            <path d="M7.2,21.9h-2V1h13v5.2l0,0v0.6c0,0.1,0,0.3,0.1,0.3c0.2,0,0.1,0,0.2,0h0.3c0.1,0,0.3,0,0.3-0.1
                c0,0,0-0.1,0-0.2V1.5c0,0,0,0,0-0.1V0.6c0-0.2-0.1-0.4-0.3-0.4l0,0l0,0l0,0h-0.1c0,0,0,0,0.1,0H7.6l0,0H4.8c-0.2,0-0.4,0.2-0.4,0.4
                v21.3H0.6c-0.1,0-0.2,0-0.3,0.1s-0.1,0.2-0.1,0.3v0.3c0,0.1,0,0.2,0.1,0.3C0.4,23,0.5,23,0.6,23h6.6c0.1,0,0.2,0,0.3-0.1
                c0.1-0.1,0.1-0.2,0.1-0.3v-0.3c0-0.1,0-0.2-0.1-0.3C7.4,21.9,7.3,21.9,7.2,21.9z"/>
        </g>
    </symbol>
    <symbol id="individual-reporting" viewBox="0 0 25 25">
        <title>individual-reporting</title>
        <g>
            <path d="M5.1,5.6C5.3,4.3,6.6,3,7.7,2.3c0.9-0.6,1.8-0.9,2.8-0.9c0.9,0,1.9,0.3,2.7,0.8l0,0c1.2,0.8,2,2,2.3,3.4l0,0
                l0,0c0,0.1,0,0.4,0.1,0.4c0.1,0,0.2,0,0.2,0h0.3c0.1,0,0.2,0,0.2-0.1V5.8l0,0c0,0,0,0,0-0.1l0,0l0,0c-0.2-1.7-1.2-3.2-2.6-4.1l0,0
                c-0.9-0.6-2-0.9-3.2-0.9s-2.3,0.4-3.3,1c-1.4,0.9-2.8,2.4-3,4l-0.3,2C3.6,9.3,3.6,11,4.8,12.3l1.3,1.5c0,0,0,0,0.1,0.1
                c0,0.1,0,0.2,0,0.3S6.1,14.3,6,14.4L4,15c-1.9,0.6-2.6,1.9-3.5,3.7c-0.4,0.8-0.4,1.7,0.1,2.5s1.3,1.2,2.2,1.2h3.8l0,0h0.1
                c0.1,0,0.3,0,0.3-0.1s0-0.2,0-0.3v-0.2c0-0.1,0-0.3-0.1-0.3c-0.1-0.1-0.1,0-0.2,0H5.2l0,0H2.8c-1.2,0-2-1.3-1.4-2.4
                c0.8-1.6,1.3-2.7,3-3.2l2-0.6c0.7-0.2,1-0.9,0.8-1.6c-0.1-0.2-0.2-0.3-0.3-0.4l-1.4-1.5c-1-1.1-1-2.6-0.7-4.1L5.1,5.6z"/>
            <path d="M16.9,8.6c-4.4,0-7.9,3.6-7.9,7.9s3.6,7.9,7.9,7.9s7.9-3.6,7.9-7.9S21.3,8.6,16.9,8.6z M16.9,23.4
		        c-3.8,0-6.9-3.1-6.9-6.9s3.1-6.9,6.9-6.9s6.9,3.1,6.9,6.9S20.7,23.4,16.9,23.4z"/>
            <polygon points="13.6,16.8 14.3,17.5 16.6,15.1 16.6,20.2 17.4,20.2 17.4,15.1 19.7,17.5 20.4,16.8 17,13.1 	"/>
        </g>
    </symbol>
    <symbol id="nav-collapse" viewBox="0 0 25 25">
      <title>nav-collapse</title>
        <g>
          <polygon points="6.8,9.1 10,12.1 0.1,12.1 0.1,12.9 10,12.9 6.8,15.9 7.5,16.6 12,12.5 7.5,8.4 	"/>
          <polygon points="24.9,12.1 15,12.1 18.2,9.1 17.5,8.4 13,12.5 17.5,16.6 18.2,15.9 15,12.9 24.9,12.9 "/>
        </g>
    </symbol>
    <symbol id="nav-expand" viewBox="0 0 25 25">
        <title>nav-expand</title>
        <g>
            <polygon points="5.2,9.1 4.5,8.4 0.1,12.5 4.5,16.6 5.2,15.9 2,12.9 11,12.9 11,12.1 2,12.1 "/>
            <polygon points="20.5,8.4 19.8,9.1 23,12.1 14,12.1 14,12.9 23,12.9 19.8,15.9 20.5,16.6 24.9,12.5 "/>
        </g>
    </symbol>
    <symbol id="chevron-left" viewBox="0 0 1792 1792">
        <title>chevron-left</title>
        <g>
            <path d="M1427 301l-531 531 531 531q19 19 19 45t-19 45l-166 166q-19 19-45 19t-45-19l-742-742q-19-19-19-45t19-45l742-742q19-19 45-19t45 19l166 166q19 19 19 45t-19 45z"/>
        </g>
    </symbol>
    <symbol id="chevron-right" viewBox="0 0 1792 1792">
        <title>chevron-right</title>
        <g>
            <path d="M1363 877l-742 742q-19 19-45 19t-45-19l-166-166q-19-19-19-45t19-45l531-531-531-531q-19-19-19-45t19-45l166-166q19-19 45-19t45 19l742 742q19 19 19 45t-19 45z"/>
        </g>
    </symbol>
    <symbol id="chevron-down" viewBox="0 0 1792 1792">
        <title>chevron-down</title>
        <g>
            <path d="M1683 808l-742 741q-19 19-45 19t-45-19l-742-741q-19-19-19-45.5t19-45.5l166-165q19-19 45-19t45 19l531 531 531-531q19-19 45-19t45 19l166 165q19 19 19 45.5t-19 45.5z"/>
        </g>
    </symbol>
    <symbol id="switch-practice" viewBox="0 0 15 15">
        <title>switch-practice</title>
        <g>
            <path d="M14,8.7h-1.8c-0.1,0-0.2,0.1-0.3,0.2c-0.2,0.4-0.3,0.7-0.5,1.1c-0.9,1.4-2.4,2.2-4,2.2c-1.2,0-2.3-0.5-3.2-1.3l1.3-1.3
		        c0.1-0.1,0.2-0.3,0.2-0.4c0-0.3-0.3-0.6-0.6-0.6H1c-0.3,0-0.6,0.3-0.6,0.6v4.1C0.4,13.7,0.7,14,1,14c0.2,0,0.3-0.1,0.4-0.2l1.2-1.2
		        c1.3,1.2,3,2,4.8,2c3.4,0,6.1-2.3,6.9-5.5c0,0,0,0,0-0.1C14.3,8.8,14.2,8.7,14,8.7z"/>
            <path d="M14,1c-0.2,0-0.3,0.1-0.4,0.2l-1.2,1.2c-1.3-1.2-3.1-2-4.9-2C4.1,0.4,1.4,2.7,0.6,6c0,0,0,0,0,0.1c0,0.2,0.1,0.3,0.3,0.3
		        h1.8C2.9,6.3,3,6.2,3,6.1C3.2,5.7,3.3,5.4,3.5,5c0.9-1.4,2.4-2.2,4-2.2c1.2,0,2.3,0.5,3.2,1.3L9.4,5.3C9.3,5.4,9.3,5.6,9.3,5.7
		        c0,0.3,0.3,0.6,0.6,0.6H14c0.3,0,0.6-0.3,0.6-0.6V1.6C14.6,1.3,14.3,1,14,1z"/>
        </g>
    </symbol>
    <symbol id="score-increase" viewBox="0 0 15 15">
        <title>score-increase</title>
        <g>
            <path d="M9.7,4c0,0.4,0.3,0.7,0.7,0.7h2.2l-4.1,4L5.8,6.4C5.4,6,5.1,6,4.8,6.3l-4.5,4.3c-0.3,0.2-0.3,0.7-0.1,1
                s0.6,0.3,0.9,0.1l4.1-3.9L7.9,10c0.2,0.4,0.7,0.5,1,0.1l4.8-4.6v2.7c0,0.4,0.3,0.7,0.6,0.7c0.4,0,0.6-0.4,0.6-0.7V3.9
                c0-0.4-0.3-0.7-0.6-0.7h-3.9C10,3.2,9.7,3.6,9.7,4z"/>
        </g>
    </symbol>
    <symbol id="tooltip" viewBox="0 0 15 15">
        <title>tooltip</title>
        <g>
            <path d="M7.5,0.2c-4,0-7.3,3.3-7.3,7.3s3.3,7.3,7.3,7.3s7.3-3.3,7.3-7.3S11.5,0.2,7.5,0.2z M7.5,13.6c-3.4,0-6.1-2.7-6.1-6.1
		        s2.7-6.1,6.1-6.1s6.1,2.7,6.1,6.1S10.9,13.6,7.5,13.6z"/>
            <path d="M8,9.9H6.9c-0.1,0-0.1,0-0.2,0.1s-0.1,0.1-0.1,0.2v1c0,0.1,0,0.1,0.1,0.2c0.1,0.1,0.1,0.1,0.2,0.1H8c0.1,0,0.1,0,0.2-0.1
		        c0.1-0.1,0.1-0.1,0.1-0.2v-1c0-0.1,0-0.1-0.1-0.2C8.2,10,8.1,9.9,8,9.9z"/>
            <path d="M9.1,3.9C8.7,3.7,8.2,3.6,7.6,3.6S6.5,3.7,6,3.9C5.6,4.1,5.3,4.4,5,4.8C4.8,5.1,4.7,5.5,4.7,5.9c0,0.1,0,0.1,0.1,0.2
                c0,0.1,0.1,0.1,0.2,0.1h1c0.2,0,0.3-0.1,0.3-0.3c0.1-0.7,0.6-1.1,1.3-1.1c0.3,0,0.6,0.1,0.8,0.3c0.2,0.2,0.3,0.4,0.3,0.7
                c0,0.2-0.1,0.3-0.2,0.5C8.3,6.5,8.1,6.7,7.8,7S7.3,7.6,7.1,7.9C6.9,8.1,6.8,8.4,6.7,8.8c0,0.1,0,0.2,0,0.4c0,0.1,0,0.1,0.1,0.2
                c0,0,0.1,0.1,0.2,0.1h1.1c0.1,0,0.1,0,0.2-0.1s0.1-0.1,0.1-0.2c0-0.1,0-0.2,0.1-0.4c0-0.2,0.1-0.4,0.3-0.6C8.9,7.8,9,7.7,9.2,7.5
                c0.4-0.4,0.6-0.7,0.8-1s0.3-0.6,0.3-1c0-0.3-0.1-0.6-0.3-0.9C9.8,4.3,9.5,4.1,9.1,3.9z"/>
        </g>
    </symbol>
    <symbol id="closex" viewBox="0 0 15 15">
        <title>close</title>
        <g stroke-width="1" transform="translate(-968.000000, -236.000000)">
            <path d="M982.725141,249.399456 L976.82556,243.499875 L982.725141,237.600294 C983.091286,237.234148 983.091286,236.640905 982.725141,236.274609 C982.359295,235.908464 981.765752,235.908464 981.399456,236.274609 L975.499875,242.17419 L969.600294,236.274609 C969.234448,235.908464 968.640905,235.908464 968.274609,236.274609 C967.908464,236.640155 967.908464,237.233998 968.274609,237.600294 L974.17419,243.499875 L968.274609,249.399456 C967.908464,249.765602 967.908464,250.358845 968.274609,250.725141 C968.640755,251.091286 969.233998,251.091286 969.600294,250.725141 L975.499875,244.82556 L981.399456,250.725141 C981.765602,251.091286 982.359295,251.091286 982.725141,250.725141 C983.091286,250.358995 983.091286,249.765752 982.725141,249.399456 Z" id="Shape"></path>
        </g>
    </symbol>
    <symbol id="icon-warning" viewBox="-2 -2 25 25">
        <style>
        .st0{clip-path:url(#SVGID_2_);} .st1{clip-path:url(#SVGID_4_);fill:#999999;} .st2{enable-background:new ;} .st3{clip-path:url(#SVGID_7_);} .st4{clip-path:url(#SVGID_8_);fill:#999999;}
        </style>
        <defs>
            <circle id="SVGID_1_" cx="10" cy="10" r="10"/>
        </defs>
        <clipPath id="SVGID_2_">
            <use xlink:href="#SVGID_1_" overflow="visible"/>
        </clipPath>
        <g>
            <defs>
                <path id="SVGID_3_" d="M0 0h20v20H0z"/>
            </defs>
            <clipPath id="SVGID_4_">
                <use xlink:href="#SVGID_3_" overflow="visible"/>
            </clipPath>
            <path d="M10 22C3.4 22-2 16.6-2 10S3.4-2 10-2s12 5.4 12 12-5.4 12-12 12zm0-20c-4.4 0-8 3.6-8 8s3.6 8 8 8 8-3.6 8-8-3.6-8-8-8z"/>
        </g>
        <g>
            <defs>
                <path id="SVGID_5_" d="M0 0h20v20H0z"/>
            </defs>
            <defs>
                <path id="SVGID_6_" d="M0 0h20v20H0z"/>
            </defs>
            <clipPath id="SVGID_7_">
                <use xlink:href="#SVGID_5_" overflow="visible"/>
            </clipPath>
            <clipPath id="SVGID_8_">
                <use xlink:href="#SVGID_6_" overflow="visible"/>
            </clipPath>
            <path d="M10 11.7c-.6 0-1-.4-1-1V5.8c0-.6.4-1 1-1s1 .4 1 1v4.9c0 .5-.4 1-1 1zM10 15.3c-.6 0-1-.4-1-1v-.4c0-.6.4-1 1-1s1 .4 1 1v.4c0 .6-.4 1-1 1z"/>
        </g>
    </symbol>
    <symbol id="star-icon" viewBox="0 0 25 25">
        <title>star</title>
        <path fill="#80CBC4" d="M24.7,9.4c-0.1-0.1-0.2-0.1-0.3-0.2L16.6,8L13,0.9c-0.1-0.1-0.2-0.2-0.3-0.3c-0.1,0-0.3,0-0.4,0
            c0,0-0.2,0.1-0.2,0.2L8.4,8L0.6,9.2c-0.3,0-0.5,0.3-0.5,0.6c0,0.1,0.1,0.2,0.2,0.3L6,15.7l-1.3,7.9c-0.1,0.3,0.1,0.6,0.4,0.7h0.1
            c0.1,0,0.2,0,0.3-0.1l7-3.7l7,3.7c0.1,0,0.2,0.1,0.3,0.1c0.3,0,0.6-0.3,0.6-0.6v-0.1l-1.3-7.9l5.6-5.6C24.9,10,24.9,9.6,24.7,9.4z
            M7.1,15.8c0-0.2,0-0.4-0.2-0.5l-5.1-5.1l7-1.1C9,9.1,9.1,9,9.2,8.8l3.2-6.4l3.2,6.4C15.7,9,15.8,9.1,16,9.1l7,1.1l-4.9,5
            c-0.1,0.1-0.3,0.4-0.3,0.6l1.4,7l-6.7-3.2c-0.2-0.1-0.4-0.1-0.5,0l-6.3,3.3L7.1,15.8z"/>
    </symbol>
</svg>
